<?xml version="1.0" encoding="UTF-8" standalone="no"?>
<svg width="64px" height="64px" viewBox="0 0 64 64" version="1.1" xmlns="http://www.w3.org/2000/svg" xmlns:xlink="http://www.w3.org/1999/xlink" xmlns:sketch="http://www.bohemiancoding.com/sketch/ns">
    <!-- Generator: Sketch 3.3.2 (12043) - http://www.bohemiancoding.com/sketch -->
    <title>contacts</title>
    <desc>Created with Sketch.</desc>
    <defs></defs>
    <g id="Page-1" stroke="none" stroke-width="1" fill="none" fill-rule="evenodd" sketch:type="MSPage">
        <g id="Features" sketch:type="MSLayerGroup" transform="translate(0.000000, -256.000000)">
            <g id="contacts" transform="translate(0.000000, 256.000000)" sketch:type="MSShapeGroup">
                <rect id="card" fill="#CACACA" x="0" y="8" width="64" height="48" rx="4"></rect>
                <rect id="photo" fill="#FFFFFF" x="6" y="18" width="20" height="28"></rect>
                <path d="M55.2949219,39 L58.2070312,39 C57.2955684,40.8502697 55.8964938,42.2994739 54.0097656,43.3476562 C51.8495986,44.5507873 49.2155103,45.1523438 46.1074219,45.1523438 C43.0995943,45.1523438 40.5019641,44.6442108 38.3144531,43.6279297 C36.1269422,42.6116486 34.5000053,41.1123146 33.4335938,39.1298828 C32.3671822,37.147451 31.8339844,34.989595 31.8339844,32.65625 C31.8339844,30.0950393 32.4400981,27.7093209 33.6523438,25.4990234 C34.8645894,23.2887259 36.523427,21.6298883 38.6289062,20.5224609 C40.7343855,19.4150335 43.1406115,18.8613281 45.8476562,18.8613281 C48.1445427,18.8613281 50.186189,19.3079382 51.9726562,20.2011719 C53.7591235,21.0944055 55.1240187,22.3635985 56.0673828,24.0087891 C57.0107469,25.6539796 57.4824219,27.4518132 57.4824219,29.4023438 C57.4824219,31.7265741 56.7669342,33.8274646 55.3359375,35.7050781 C53.5403556,38.0748816 51.2389463,39.2597656 48.4316406,39.2597656 C47.6751264,39.2597656 47.1054707,39.1276055 46.7226562,38.8632812 C46.3398418,38.598957 46.0846361,38.2115911 45.9570312,37.7011719 C44.881505,38.7402396 43.6419341,39.2597656 42.2382812,39.2597656 C40.7252529,39.2597656 39.4697316,38.7379609 38.4716797,37.6943359 C37.4736278,36.6507109 36.9746094,35.2630295 36.9746094,33.53125 C36.9746094,31.3893122 37.5761659,29.4342536 38.7792969,27.6660156 C40.2376375,25.5149632 42.1061084,24.4394531 44.3847656,24.4394531 C46.0071696,24.4394531 47.2057253,25.0592386 47.9804688,26.2988281 L48.3222656,24.78125 L51.9316406,24.78125 L49.8671875,34.5839844 C49.7395827,35.2037791 49.6757812,35.6048168 49.6757812,35.7871094 C49.6757812,36.0149751 49.7281896,36.1858718 49.8330078,36.2998047 C49.937826,36.4137375 50.0631503,36.4707031 50.2089844,36.4707031 C50.6464866,36.4707031 51.2115851,36.2063829 51.9042969,35.6777344 C52.833989,34.9850226 53.5859346,34.0553444 54.1601562,32.8886719 C54.7343779,31.7219994 55.0214844,30.5143292 55.0214844,29.265625 C55.0214844,27.0234263 54.2102946,25.1481195 52.5878906,23.6396484 C50.9654867,22.1311774 48.7005354,21.3769531 45.7929688,21.3769531 C43.3229043,21.3769531 41.2288497,21.8805288 39.5107422,22.8876953 C37.7926346,23.8948618 36.4983767,25.3121653 35.6279297,27.1396484 C34.7574826,28.9671315 34.3222656,30.8697818 34.3222656,32.8476562 C34.3222656,34.7708429 34.8076123,36.5208254 35.7783203,38.0976562 C36.7490283,39.6744871 38.1116449,40.8251917 39.8662109,41.5498047 C41.620777,42.2744177 43.6282439,42.6367188 45.8886719,42.6367188 C48.0670682,42.6367188 49.9400963,42.3336619 51.5078125,41.7275391 C53.0755287,41.1214162 54.3378858,40.2122456 55.2949219,39 L55.2949219,39 Z M40.515625,33.3808594 C40.515625,34.5384172 40.7503232,35.3906223 41.2197266,35.9375 C41.68913,36.4843777 42.2701788,36.7578125 42.9628906,36.7578125 C43.4824245,36.7578125 43.9700498,36.6302096 44.4257812,36.375 C44.7721371,36.1927074 45.1139306,35.9056009 45.4511719,35.5136719 C45.9342472,34.9576795 46.3512352,34.1464897 46.7021484,33.0800781 C47.0530617,32.0136665 47.2285156,31.0201869 47.2285156,30.0996094 C47.2285156,29.0696563 46.9892602,28.2789741 46.5107422,27.7275391 C46.0322242,27.176104 45.4283891,26.9003906 44.6992188,26.9003906 C43.9153607,26.9003906 43.1907585,27.2034475 42.5253906,27.8095703 C41.8600227,28.4156931 41.3587256,29.2792913 41.0214844,30.4003906 C40.6842431,31.52149 40.515625,32.5149696 40.515625,33.3808594 L40.515625,33.3808594 Z" id="@" fill="#FFFFFF"></path>
            </g>
        </g>
    </g>
</svg>