<?xml version="1.0" encoding="UTF-8" standalone="no"?>
<svg width="64px" height="64px" viewBox="0 0 64 64" version="1.1" xmlns="http://www.w3.org/2000/svg" xmlns:xlink="http://www.w3.org/1999/xlink" xmlns:sketch="http://www.bohemiancoding.com/sketch/ns">
    <!-- Generator: Sketch 3.3.3 (12072) - http://www.bohemiancoding.com/sketch -->
    <title>fallback</title>
    <desc>Created with Sketch.</desc>
    <defs></defs>
    <g id="Page-1" stroke="none" stroke-width="1" fill="none" fill-rule="evenodd" sketch:type="MSPage">
        <g id="Features" sketch:type="MSLayerGroup" transform="translate(-256.000000, -512.000000)" fill="#CACACA">
            <g id="fallback" transform="translate(256.000000, 512.000000)" sketch:type="MSShapeGroup">
                <path d="M51.4218176,1.99473946 L34.0862962,1.99473946 C28.2010279,1.99473946 17.227037,3.6705164 15.9715934,16.0010593 C14.9111614,26.4162644 25.8513898,29.9608269 31.4279936,29.0733291 C30.0145619,32.6541633 30.8312848,34.6981915 33.2442563,37.2542978 C26.1052964,36.6925256 12,40.4702793 12,50.6143085 C12,60.7583376 26.1768145,61.9001603 30.3691406,61.9001603 C34.5614667,61.9001603 50.8310716,58.6741302 49.6470588,46.2696418 C48.6042911,35.3449292 38.3062975,35.6122494 38.306296,30.3897958 C38.3062944,25.1673423 48.0282621,24.3730929 47.2105354,14.3999945 C46.3928086,4.42689601 38.7066858,4.47687574 41.519761,4.53342423 C44.3328362,4.58997273 46.3408203,4.58997273 46.3408203,4.58997273 L51.4218176,1.99473946 Z M19.0130113,49.1160589 C19.0130113,55.8099158 27.4545324,59.1081492 34.5574449,58.3417457 C41.6603573,57.5753423 44.4207261,54.381209 44.4207261,49.7488019 C44.4207261,45.0067249 38.1310892,41.2541043 35.6945657,39.6494693 C25.4889131,39.3854336 19.0130113,42.422202 19.0130113,49.1160589 Z M28.3153435,4.71249447 C33.7690144,3.22067094 37.393785,7.89091983 39.0292399,12.6981132 C40.6646949,17.5053066 41.2451751,24.217585 35.6210365,26.2546164 C29.9968978,28.2916477 26.0828929,24.7863535 23.95571,18.6941098 C21.8285271,12.6018661 22.8616726,6.20431801 28.3153435,4.71249447 Z" id="g"></path>
            </g>
        </g>
    </g>
</svg>