<?xml version="1.0" encoding="UTF-8" standalone="no"?>
<svg width="64px" height="64px" viewBox="0 0 64 64" version="1.1" xmlns="http://www.w3.org/2000/svg" xmlns:xlink="http://www.w3.org/1999/xlink" xmlns:sketch="http://www.bohemiancoding.com/sketch/ns">
    <!-- Generator: Sketch 3.3.3 (12072) - http://www.bohemiancoding.com/sketch -->
    <title>findapps</title>
    <desc>Created with Sketch.</desc>
    <defs></defs>
    <g id="Page-1" stroke="none" stroke-width="1" fill="none" fill-rule="evenodd" sketch:type="MSPage">
        <g id="Features" sketch:type="MSLayerGroup" fill="#CACACA">
            <g id="findapps" sketch:type="MSShapeGroup">
                <path d="M35.6331772,44.9971383 C32.1872282,46.9104023 28.2208587,48 24,48 C10.745166,48 0,37.254834 0,24 C0,10.745166 10.745166,0 24,0 C37.254834,0 48,10.745166 48,24 C48,28.2208587 46.9104023,32.1872282 44.9971383,35.6331772 L63.2885822,53.9246212 L53.9246212,63.2885822 L35.6331772,44.9971383 L35.6331772,44.9971383 Z M24.5,38 C31.9558441,38 38,31.9558441 38,24.5 C38,17.0441559 31.9558441,11 24.5,11 C17.0441559,11 11,17.0441559 11,24.5 C11,31.9558441 17.0441559,38 24.5,38 Z" id="Path"></path>
            </g>
        </g>
    </g>
</svg>