<?xml version="1.0" encoding="UTF-8" standalone="no"?>
<svg width="64px" height="64px" viewBox="0 0 64 64" version="1.1" xmlns="http://www.w3.org/2000/svg" xmlns:xlink="http://www.w3.org/1999/xlink">
    <!-- Generator: Sketch 3.7.2 (28276) - http://www.bohemiancoding.com/sketch -->
    <title>hotkeys</title>
    <desc>Created with Sketch.</desc>
    <defs></defs>
    <g id="Page-1" stroke="none" stroke-width="1" fill="none" fill-rule="evenodd">
        <g id="Features" transform="translate(-128.000000, -640.000000)" fill="#CACACA">
            <g id="hotkeys" transform="translate(128.000000, 640.000000)">
                <path d="M26.71875,37.875 L38.28125,37.875 L38.28125,26.3125 L26.71875,26.3125 L26.71875,37.875 Z M26.71875,43.65625 L26.71875,50.296875 C26.71875,53.630225 25.514335,56.4882693 23.1054688,58.8710938 C20.6966025,61.2539182 17.7994961,62.4453125 14.4140625,62.4453125 C11.0286289,62.4453125 8.13803281,61.2474078 5.7421875,58.8515625 C3.34634219,56.4557172 2.1484375,53.5521004 2.1484375,50.140625 C2.1484375,46.807275 3.34634219,43.9296996 5.7421875,41.5078125 C8.13803281,39.0859254 10.9895668,37.875 14.296875,37.875 L20.9375,37.875 L20.9375,26.3125 L14.296875,26.3125 C10.9895668,26.3125 8.13803281,25.1015746 5.7421875,22.6796875 C3.34634219,20.2578004 2.1484375,17.3672043 2.1484375,14.0078125 C2.1484375,10.6223789 3.34634219,7.73178281 5.7421875,5.3359375 C8.13803281,2.94009219 11.0286289,1.7421875 14.4140625,1.7421875 C17.7994961,1.7421875 20.6966025,2.93358184 23.1054688,5.31640625 C25.514335,7.69923066 26.71875,10.557275 26.71875,13.890625 L26.71875,20.53125 L38.28125,20.53125 L38.28125,13.890625 C38.28125,10.557275 39.485665,7.69923066 41.8945312,5.31640625 C44.3033975,2.93358184 47.2005039,1.7421875 50.5859375,1.7421875 C53.9974129,1.7421875 56.8945193,2.94009219 59.2773438,5.3359375 C61.6601682,7.73178281 62.8515625,10.6223789 62.8515625,14.0078125 C62.8515625,17.3672043 61.6601682,20.2578004 59.2773438,22.6796875 C56.8945193,25.1015746 54.036475,26.3125 50.703125,26.3125 L44.0625,26.3125 L44.0625,37.875 L50.703125,37.875 C54.036475,37.875 56.8945193,39.0859254 59.2773438,41.5078125 C61.6601682,43.9296996 62.8515625,46.807275 62.8515625,50.140625 C62.8515625,53.5521004 61.6601682,56.4557172 59.2773438,58.8515625 C56.8945193,61.2474078 53.9974129,62.4453125 50.5859375,62.4453125 C47.2005039,62.4453125 44.3033975,61.2539182 41.8945312,58.8710938 C39.485665,56.4882693 38.28125,53.630225 38.28125,50.296875 L38.28125,43.65625 L26.71875,43.65625 Z M20.9375,20.53125 L20.9375,14.0078125 C20.9375,12.2109285 20.2994855,10.6809959 19.0234375,9.41796875 C17.7473895,8.1549416 16.2109465,7.5234375 14.4140625,7.5234375 C12.6432203,7.5234375 11.119798,8.1549416 9.84375,9.41796875 C8.56770195,10.6809959 7.9296875,12.2109285 7.9296875,14.0078125 C7.9296875,15.8046965 8.56770195,17.3411395 9.84375,18.6171875 C11.119798,19.8932355 12.656241,20.53125 14.453125,20.53125 L20.9375,20.53125 Z M20.9375,43.65625 L14.453125,43.65625 C12.656241,43.65625 11.119798,44.2942645 9.84375,45.5703125 C8.56770195,46.8463605 7.9296875,48.3697828 7.9296875,50.140625 C7.9296875,51.937509 8.56770195,53.473952 9.84375,54.75 C11.119798,56.026048 12.656241,56.6640625 14.453125,56.6640625 C16.2239672,56.6640625 17.7473895,56.026048 19.0234375,54.75 C20.2994855,53.473952 20.9375,51.9505297 20.9375,50.1796875 L20.9375,43.65625 Z M44.0625,20.53125 L50.5859375,20.53125 C52.3567797,20.53125 53.880202,19.8932355 55.15625,18.6171875 C56.432298,17.3411395 57.0703125,15.8046965 57.0703125,14.0078125 C57.0703125,12.2109285 56.4388084,10.6809959 55.1757812,9.41796875 C53.9127541,8.1549416 52.3828215,7.5234375 50.5859375,7.5234375 C48.7890535,7.5234375 47.2526105,8.1549416 45.9765625,9.41796875 C44.7005145,10.6809959 44.0625,12.2109285 44.0625,14.0078125 L44.0625,20.53125 Z M44.0625,43.65625 L44.0625,50.1796875 C44.0625,51.9505297 44.7005145,53.473952 45.9765625,54.75 C47.2526105,56.026048 48.7890535,56.6640625 50.5859375,56.6640625 C52.3828215,56.6640625 53.9127541,56.026048 55.1757812,54.75 C56.4388084,53.473952 57.0703125,51.937509 57.0703125,50.140625 C57.0703125,48.3697828 56.432298,46.8463605 55.15625,45.5703125 C53.880202,44.2942645 52.3567797,43.65625 50.5859375,43.65625 L44.0625,43.65625 Z" id="⌘"></path>
            </g>
        </g>
    </g>
</svg>