<?xml version="1.0" encoding="UTF-8" standalone="no"?>
<svg width="64px" height="64px" viewBox="0 0 64 64" version="1.1" xmlns="http://www.w3.org/2000/svg" xmlns:xlink="http://www.w3.org/1999/xlink" xmlns:sketch="http://www.bohemiancoding.com/sketch/ns">
    <!-- Generator: Sketch 3.3.2 (12043) - http://www.bohemiancoding.com/sketch -->
    <title>navigation</title>
    <desc>Created with Sketch.</desc>
    <defs></defs>
    <g id="Page-1" stroke="none" stroke-width="1" fill="none" fill-rule="evenodd" sketch:type="MSPage">
        <g id="Features" sketch:type="MSLayerGroup" transform="translate(0.000000, -384.000000)">
            <g id="navigation" transform="translate(0.000000, 384.000000)" sketch:type="MSShapeGroup">
                <rect id="folder" fill="#CACACA" x="0" y="14" width="64" height="42" rx="2"></rect>
                <path d="M0,11.9957648 C0,9.23668008 2.23877482,7 4.9961179,7 L19.6192667,7 C22.3785464,7 25.1631804,9.16229857 25.8427002,11.8445472 L27.388069,17.9445365 C28.0658967,20.6201061 26.3699834,22.7890837 23.614602,22.7890837 L5.00078258,22.7890837 C2.23892662,22.7890837 0,20.5603814 0,17.793319 L0,11.9957648 Z" id="tab" fill="#CACACA"></path>
                <polygon id="action" fill="#FFFFFF" points="32 43.2500002 27.211718 49.0953893 27.0505353 41.3198668 19.8756443 42.5 24.4169801 36.4325975 18.2126915 32.3952773 25.3316042 30.8749999 23.0009735 23.5093334 29.3664448 27.2475357 32 20 34.6335552 27.2475357 40.9990265 23.5093334 38.6683958 30.8749999 45.7873085 32.3952773 39.5830199 36.4325975 44.1243557 42.5 36.9494647 41.3198668 36.788282 49.0953893 "></polygon>
            </g>
        </g>
    </g>
</svg>