<?xml version="1.0" encoding="UTF-8" standalone="no"?>
<svg width="64px" height="64px" viewBox="0 0 64 64" version="1.1" xmlns="http://www.w3.org/2000/svg" xmlns:xlink="http://www.w3.org/1999/xlink">
    <!-- Generator: Sketch 3.7.2 (28276) - http://www.bohemiancoding.com/sketch -->
    <title>snippets</title>
    <desc>Created with Sketch.</desc>
    <defs></defs>
    <g id="Page-1" stroke="none" stroke-width="1" fill="none" fill-rule="evenodd">
        <g id="Features" transform="translate(0.000000, -640.000000)">
            <g id="snippets" transform="translate(0.000000, 640.000000)">
                <path d="M32.5878906,45.3945312 C30.2441289,47.3867287 27.9882921,48.7929646 25.8203125,49.6132812 C23.6523329,50.4335979 21.3261843,50.84375 18.8417969,50.84375 C14.7402139,50.84375 11.5879016,49.8418069 9.38476562,47.8378906 C7.18162961,45.8339744 6.08007812,43.2734531 6.08007812,40.15625 C6.08007812,38.3281159 6.49608959,36.6582107 7.328125,35.1464844 C8.16016041,33.6347581 9.24999326,32.4218796 10.5976562,31.5078125 C11.9453192,30.5937454 13.4628822,29.9023461 15.1503906,29.4335938 C16.3925843,29.1054671 18.2675656,28.789064 20.7753906,28.484375 C25.8847912,27.874997 29.6464723,27.1484417 32.0605469,26.3046875 C32.0839845,25.4374957 32.0957031,24.8867199 32.0957031,24.6523438 C32.0957031,22.0742059 31.4980529,20.2578178 30.3027344,19.203125 C28.6855388,17.7734304 26.2832191,17.0585938 23.0957031,17.0585938 C20.1191257,17.0585938 17.9218821,17.5800729 16.5039062,18.6230469 C15.0859304,19.6660208 14.0371128,21.5117055 13.3574219,24.1601562 L7.16992188,23.3164062 C7.73242469,20.6679555 8.65819668,18.529305 9.94726562,16.9003906 C11.2363346,15.2714762 13.0995972,14.0175825 15.5371094,13.1386719 C17.9746216,12.2597612 20.7988121,11.8203125 24.0097656,11.8203125 C27.1972816,11.8203125 29.7870994,12.1953088 31.7792969,12.9453125 C33.7714943,13.6953163 35.2363234,14.6386662 36.1738281,15.7753906 C37.1113328,16.9121151 37.7675763,18.3476476 38.1425781,20.0820312 C38.3535167,21.1601616 38.4589844,23.1054547 38.4589844,25.9179688 L38.4589844,34.3554688 C38.4589844,40.2383107 38.5937487,43.9589766 38.8632812,45.5175781 C39.1328138,47.0761797 39.6660116,48.5703054 40.4628906,50 L33.8535156,50 C33.1972623,48.6874934 32.7753916,47.1523525 32.5878906,45.3945312 L32.5878906,45.3945312 Z M32.0605469,31.2617188 C29.7636604,32.1992234 26.3183823,32.9960905 21.7246094,33.6523438 C19.1230339,34.0273456 17.2832085,34.4492164 16.2050781,34.9179688 C15.1269477,35.3867211 14.2949248,36.0722611 13.7089844,36.9746094 C13.1230439,37.8769576 12.8300781,38.8789007 12.8300781,39.9804688 C12.8300781,41.6679772 13.4687436,43.0742131 14.7460938,44.1992188 C16.0234439,45.3242244 17.8925658,45.8867188 20.3535156,45.8867188 C22.7910278,45.8867188 24.9589749,45.353521 26.8574219,44.2871094 C28.7558689,43.2206978 30.1503862,41.761728 31.0410156,39.9101562 C31.7207065,38.4804616 32.0605469,36.3711077 32.0605469,33.5820312 L32.0605469,31.2617188 Z" id="a" fill="#CACACA"></path>
                <path d="M50,11.5 L50,52.5" id="Line" stroke="#CACACA" stroke-width="6" stroke-linecap="square"></path>
                <polyline id="Path-54" stroke="#CACACA" stroke-width="5" points="41 62 50 53 59 62"></polyline>
                <polyline id="Path-54" stroke="#CACACA" stroke-width="5" transform="translate(50.000000, 6.500000) scale(1, -1) translate(-50.000000, -6.500000) " points="41 11 50 2 59 11"></polyline>
            </g>
        </g>
    </g>
</svg>