<?xml version="1.0" encoding="UTF-8" standalone="no"?>
<svg width="64px" height="64px" viewBox="0 0 64 64" version="1.1" xmlns="http://www.w3.org/2000/svg" xmlns:xlink="http://www.w3.org/1999/xlink" xmlns:sketch="http://www.bohemiancoding.com/sketch/ns">
    <!-- Generator: Sketch 3.3.2 (12043) - http://www.bohemiancoding.com/sketch -->
    <title>spelling</title>
    <desc>Created with Sketch.</desc>
    <defs></defs>
    <g id="Page-1" stroke="none" stroke-width="1" fill="none" fill-rule="evenodd" sketch:type="MSPage">
        <g id="Features" sketch:type="MSLayerGroup" transform="translate(-384.000000, 0.000000)">
            <g id="spelling" transform="translate(384.000000, 0.000000)" sketch:type="MSShapeGroup">
                <path d="M9.12465621e-08,15.175796 C9.12465374e-08,6 30.9999999,6 31,15.175796 L31,58.7256393 C31,51 9.12465357e-08,51 9.12465621e-08,58.7256393 C9.12465621e-08,58.7256393 -1.14058325e-07,15.175796 9.12465621e-08,15.175796 Z" id="book-left" fill="#CACACA"></path>
                <path d="M33.0000001,15.175796 C33.0000001,6 63.9999999,6 64,15.175796 L64,58.7256393 C64,51 33.0000001,51 33.0000001,58.7256393 C33.0000001,58.7256393 32.9999999,15.175796 33.0000001,15.175796 Z" id="book-right" fill="#CACACA"></path>
                <rect id="spine" fill="#FFFFFF" x="31" y="14" width="2" height="44"></rect>
            </g>
        </g>
    </g>
</svg>