<?xml version="1.0" encoding="UTF-8" standalone="no"?>
<svg width="64px" height="64px" viewBox="0 0 64 64" version="1.1" xmlns="http://www.w3.org/2000/svg" xmlns:xlink="http://www.w3.org/1999/xlink" xmlns:sketch="http://www.bohemiancoding.com/sketch/ns">
    <!-- Generator: Sketch 3.3.2 (12043) - http://www.bohemiancoding.com/sketch -->
    <title>sync</title>
    <desc>Created with Sketch.</desc>
    <defs></defs>
    <g id="Page-1" stroke="none" stroke-width="1" fill="none" fill-rule="evenodd" sketch:type="MSPage">
        <g id="Features" sketch:type="MSLayerGroup" transform="translate(-384.000000, -512.000000)">
            <g id="sync" transform="translate(384.000000, 512.000000)" sketch:type="MSShapeGroup">
                <path d="M39,10.9375 C50.5825209,10.9510311 61.2568359,17.623661 61.2568359,32 C61.2568359,46.376339 50.5825209,53.0625 39,53.0625" id="right-circle" stroke="#CACACA" stroke-width="6" stroke-linecap="square"></path>
                <path d="M43,2.9375 L43,18.9375 L32,10.9375 L43,2.9375 Z" id="right-arrow" fill="#CACACA"></path>
                <path d="M3,10.9375 C14.5825209,10.9510311 25.2568359,17.623661 25.2568359,32 C25.2568359,46.376339 14.5825209,53.0625 3,53.0625" id="left-circle" stroke="#CACACA" stroke-width="6" stroke-linecap="square" transform="translate(14.128418, 32.000000) rotate(-180.000000) translate(-14.128418, -32.000000) "></path>
                <path d="M33.2568359,45.0625 L33.2568359,61.0625 L22.2568359,53.0625 L33.2568359,45.0625 Z" id="left-arrow" fill="#CACACA" transform="translate(27.756836, 53.062500) rotate(-180.000000) translate(-27.756836, -53.062500) "></path>
            </g>
        </g>
    </g>
</svg>