<?xml version="1.0" encoding="UTF-8" standalone="no"?>
<svg width="64px" height="64px" viewBox="0 0 64 64" version="1.1" xmlns="http://www.w3.org/2000/svg" xmlns:xlink="http://www.w3.org/1999/xlink" xmlns:sketch="http://www.bohemiancoding.com/sketch/ns">
    <!-- Generator: Sketch 3.3.2 (12043) - http://www.bohemiancoding.com/sketch -->
    <title>theming</title>
    <desc>Created with Sketch.</desc>
    <defs></defs>
    <g id="Page-1" stroke="none" stroke-width="1" fill="none" fill-rule="evenodd" sketch:type="MSPage">
        <g id="Features" sketch:type="MSLayerGroup" transform="translate(-384.000000, -384.000000)">
            <g id="theming" transform="translate(377.000000, 383.000000)" sketch:type="MSShapeGroup">
                <g id="brush" transform="translate(35.525126, 36.267767) rotate(-315.000000) translate(-35.525126, -36.267767) translate(18.025126, 3.767767)">
                    <rect id="handle" fill="#CACACA" x="14" y="30" width="8" height="35" rx="2"></rect>
                    <path d="M1.10614875,26.9953976 C1.04752441,26.4456547 1.45659216,26 2.00280532,26 L34.1218499,26 C34.675684,26 35.0774576,26.4425906 35.0185065,26.9953976 L34.5883333,31.0292967 C34.2955818,33.7745403 31.8213694,36 29.059531,36 L7.06512428,36 C4.30440259,36 1.82972776,33.7806759 1.53632193,31.0292967 L1.10614875,26.9953976 Z" id="brush-holder" fill="#CACACA"></path>
                    <path d="M3,1.3500312e-13 L6.00292969,2 L9.13110352,1.3500312e-13 L12.0803223,2 L14.9616699,1.3500312e-13 L17.9797363,2 L21.1401367,1.3500312e-13 L24.0388184,2 L26.9394531,1.3500312e-13 L30.1032715,2 L33,1.3500312e-13 L33,28 L3,28 L3,1.3500312e-13 Z" stroke="#CACACA" stroke-width="2" fill="#FFFFFF"></path>
                    <rect id="brush-1" fill="#CACACA" x="10" y="8" width="2" height="14"></rect>
                    <rect id="brush-2" fill="#CACACA" x="17" y="8" width="2" height="14"></rect>
                    <rect id="brush-3" fill="#CACACA" x="24" y="8" width="2" height="14"></rect>
                </g>
            </g>
        </g>
    </g>
</svg>